<?xml version="1.0" encoding="UTF-8"?>
<svg id="LOGO" xmlns="http://www.w3.org/2000/svg" version="1.1" viewBox="0 0 1500 1000">
  <!-- Generator: Adobe Illustrator 30.0.0, SVG Export Plug-In . SVG Version: 2.1.1 Build 123)  -->
  <defs>
    <style>
      .st0 {
        fill: #232323;
      }

      .st1 {
        fill: #20394d;
      }

      .st2 {
        fill: #fff;
      }

      .st3 {
        fill: #1c3a4a;
      }

      .st4 {
        fill: #8c3a39;
      }

      .st5 {
        fill: #fdf9e3;
      }
    </style>
  </defs>
  <g>
    <path class="st4" d="M755.2,118.7c-210.6,0-381.3,170.7-381.3,381.3s7.4,86.1,21.1,125.3h39.6c-15.4-39.4-23.4-81.7-23.4-125.3,0-91.9,35.8-178.3,100.8-243.3,65-65,151.4-100.8,243.3-100.8s178.3,35.8,243.3,100.8c65,65,100.8,151.4,100.8,243.3s-8,85.9-23.4,125.3h39.6c13.7-39.2,21.1-81.4,21.1-125.3,0-210.6-170.7-381.3-381.3-381.3ZM832.7,835.4c-25.1,5.8-51.1,8.7-77.6,8.7s-52.4-3-77.6-8.7h-104.1c54,29.3,115.9,46,181.7,46s127.7-16.7,181.7-46h-104.1Z"/>
    <g>
      <polygon class="st2" points="755.2 122.9 758.8 133.9 770.4 133.9 761 140.7 764.6 151.7 755.2 144.9 745.8 151.7 749.4 140.7 740 133.9 751.6 133.9 755.2 122.9"/>
      <polygon class="st2" points="689.7 128.6 695.1 138.8 706.6 136.8 698.5 145.2 703.9 155.4 693.5 150.3 685.5 158.7 687.1 147.2 676.7 142.1 688.1 140.1 689.7 128.6"/>
      <polygon class="st2" points="626.2 145.6 633.3 154.7 644.2 150.8 637.7 160.4 644.9 169.5 633.7 166.3 627.3 175.9 626.9 164.4 615.7 161.2 626.6 157.2 626.2 145.6"/>
      <polygon class="st2" points="566.6 173.4 575.2 181.2 585.3 175.4 580.6 185.9 589.2 193.7 577.6 192.5 572.9 203.1 570.5 191.7 559 190.5 569 184.7 566.6 173.4"/>
      <polygon class="st2" points="512.8 211.1 522.6 217.2 531.5 209.8 528.7 221 538.5 227.2 526.9 228 524.1 239.2 519.8 228.5 508.2 229.3 517.1 221.8 512.8 211.1"/>
      <polygon class="st2" points="466.3 257.6 477 261.9 484.5 253 483.7 264.6 494.4 269 483.2 271.8 482.4 283.3 476.2 273.5 465 276.3 472.4 267.4 466.3 257.6"/>
      <polygon class="st2" points="428.6 311.4 439.9 313.8 445.7 303.8 446.9 315.3 458.3 317.7 447.7 322.5 448.9 334 441.1 325.4 430.5 330.1 436.3 320 428.6 311.4"/>
      <polygon class="st2" points="400.8 371 412.4 371.4 416.3 360.5 419.5 371.7 431.1 372.1 421.5 378.6 424.7 389.7 415.6 382.6 406 389 409.9 378.2 400.8 371"/>
      <polygon class="st2" points="383.8 434.5 395.3 432.9 397.3 421.5 402.4 431.9 413.8 430.3 405.5 438.3 410.6 448.8 400.3 443.3 392 451.4 394 440 383.8 434.5"/>
      <polygon class="st2" points="378.1 500 389.1 496.4 389.1 484.8 395.9 494.2 406.9 490.6 400.1 500 406.9 509.4 395.9 505.8 389.1 515.2 389.1 503.6 378.1 500"/>
      <polygon class="st2" points="383.8 565.5 394 560 392 548.6 400.3 556.7 410.6 551.2 405.5 561.7 413.8 569.7 402.4 568.1 397.3 578.5 395.3 567.1 383.8 565.5"/>
      <polygon class="st2" points="405.5 625.3 409.9 621.8 406 611 415.6 617.4 424.7 610.3 421.5 621.4 427.3 625.3 405.5 625.3"/>
      <polygon class="st2" points="644.2 849.2 633.3 845.2 626.2 854.4 626.6 842.8 615.7 838.8 626.9 835.6 626.9 835.4 641.1 835.4 637.7 839.6 644.2 849.2"/>
      <polygon class="st2" points="689.7 871.4 688.1 859.9 676.7 857.9 687.1 852.8 685.5 841.3 693.5 849.7 703.9 844.6 698.5 854.8 706.6 863.2 695.1 861.2 689.7 871.4"/>
      <polygon class="st2" points="755.2 877.1 751.6 866.1 740 866.1 749.4 859.3 745.8 848.3 755.2 855.1 764.6 848.3 761 859.3 770.4 866.1 758.8 866.1 755.2 877.1"/>
      <polygon class="st2" points="820.7 871.4 815.2 861.2 803.8 863.2 811.9 854.8 806.4 844.6 816.8 849.7 824.9 841.3 823.3 852.8 833.7 857.9 822.3 859.9 820.7 871.4"/>
      <polygon class="st2" points="883.8 842.8 884.2 854.4 877 845.2 866.1 849.2 872.6 839.6 869.3 835.4 883.5 835.4 883.5 835.6 894.7 838.8 883.8 842.8"/>
      <polygon class="st2" points="1083.1 625.3 1088.8 621.4 1085.7 610.3 1094.8 617.4 1104.4 611 1100.4 621.8 1104.9 625.3 1083.1 625.3"/>
      <polygon class="st2" points="1126.6 565.5 1115.1 567.1 1113.1 578.5 1108 568.1 1096.5 569.7 1104.9 561.7 1099.8 551.2 1110 556.7 1118.4 548.6 1116.4 560 1126.6 565.5"/>
      <polygon class="st2" points="1132.3 500 1121.3 503.6 1121.3 515.2 1114.5 505.8 1103.5 509.4 1110.3 500 1103.5 490.6 1114.5 494.2 1121.3 484.8 1121.3 496.4 1132.3 500"/>
      <polygon class="st2" points="1126.6 434.5 1116.4 440 1118.4 451.4 1110 443.3 1099.8 448.8 1104.9 438.3 1096.5 430.3 1108 431.9 1113.1 421.5 1115.1 432.9 1126.6 434.5"/>
      <polygon class="st2" points="1109.6 371 1100.4 378.2 1104.4 389 1094.8 382.6 1085.7 389.7 1088.9 378.6 1079.2 372.1 1090.8 371.7 1094 360.5 1098 371.4 1109.6 371"/>
      <polygon class="st2" points="1081.8 311.4 1074 320 1079.8 330.1 1069.2 325.4 1061.5 334 1062.7 322.5 1052.1 317.7 1063.4 315.3 1064.7 303.8 1070.5 313.8 1081.8 311.4"/>
      <polygon class="st2" points="1044.1 257.6 1037.9 267.4 1045.4 276.3 1034.1 273.5 1028 283.3 1027.2 271.8 1015.9 269 1026.7 264.6 1025.9 253 1033.3 261.9 1044.1 257.6"/>
      <polygon class="st2" points="997.6 211.1 993.3 221.8 1002.1 229.3 990.6 228.5 986.2 239.2 983.4 228 971.9 227.2 981.7 221 978.9 209.8 987.8 217.2 997.6 211.1"/>
      <polygon class="st2" points="943.8 173.4 941.3 184.7 951.4 190.5 939.9 191.7 937.4 203.1 932.7 192.5 921.2 193.7 929.8 185.9 925.1 175.4 935.1 181.2 943.8 173.4"/>
      <polygon class="st2" points="884.2 145.6 883.8 157.2 894.7 161.2 883.5 164.4 883.1 175.9 876.6 166.3 865.5 169.5 872.6 160.4 866.1 150.8 877 154.7 884.2 145.6"/>
      <polygon class="st2" points="820.7 128.6 822.3 140.1 833.7 142.1 823.3 147.2 824.9 158.7 816.8 150.3 806.4 155.4 811.9 145.2 803.8 136.8 815.2 138.8 820.7 128.6"/>
    </g>
    <g>
      <polygon class="st4" points="755.2 164.6 758.8 175.7 770.4 175.7 761 182.5 764.6 193.5 755.2 186.7 745.8 193.5 749.4 182.5 740 175.7 751.6 175.7 755.2 164.6"/>
      <polygon class="st4" points="702.7 168.8 708 179.1 719.4 177.3 711.2 185.5 716.5 195.8 706.2 190.6 698 198.8 699.8 187.3 689.5 182 700.9 180.2 702.7 168.8"/>
      <polygon class="st4" points="651.6 181.1 658.4 190.4 669.4 186.9 662.6 196.2 669.4 205.6 658.4 202 651.6 211.4 651.6 199.8 640.5 196.2 651.6 192.7 651.6 181.1"/>
      <polygon class="st4" points="602.9 201.2 611.1 209.4 621.5 204.1 616.2 214.5 624.4 222.7 612.9 220.8 607.7 231.2 605.9 219.7 594.4 217.9 604.7 212.6 602.9 201.2"/>
      <polygon class="st4" points="558.1 228.7 567.4 235.5 576.8 228.7 573.2 239.7 582.6 246.5 571 246.5 567.4 257.6 563.9 246.5 552.3 246.5 561.6 239.7 558.1 228.7"/>
      <polygon class="st4" points="518.1 262.9 528.4 268.1 536.6 259.9 534.8 271.4 545.1 276.6 533.6 278.5 531.8 289.9 526.6 279.6 515.1 281.4 523.3 273.2 518.1 262.9"/>
      <polygon class="st4" points="483.9 302.9 494.9 306.5 501.7 297.1 501.7 308.7 512.7 312.3 501.7 315.8 501.7 327.4 494.9 318.1 483.9 321.6 490.7 312.3 483.9 302.9"/>
      <polygon class="st4" points="456.4 347.8 467.8 349.6 473.1 339.2 474.9 350.7 486.4 352.5 476 357.8 477.8 369.2 469.6 361 459.3 366.3 464.6 355.9 456.4 347.8"/>
      <polygon class="st4" points="436.2 396.4 447.8 396.4 451.4 385.3 455 396.4 466.6 396.4 457.2 403.2 460.8 414.2 451.4 407.4 442 414.2 445.6 403.2 436.2 396.4"/>
      <polygon class="st4" points="424 447.5 435.4 445.7 437.2 434.3 442.5 444.6 453.9 442.8 445.7 451 451 461.3 440.7 456.1 432.5 464.3 434.3 452.8 424 447.5"/>
      <polygon class="st4" points="419.8 500 430.9 496.4 430.9 484.8 437.7 494.2 448.7 490.6 441.9 500 448.7 509.4 437.7 505.8 430.9 515.2 430.9 503.6 419.8 500"/>
      <polygon class="st4" points="424 552.5 434.3 547.2 432.5 535.7 440.7 543.9 451 538.7 445.7 549 453.9 557.2 442.5 555.4 437.2 565.7 435.4 554.3 424 552.5"/>
      <polygon class="st4" points="436.2 603.6 445.6 596.8 442 585.8 451.4 592.6 460.8 585.8 457.2 596.8 466.6 603.6 455 603.6 451.4 614.7 447.8 603.6 436.2 603.6"/>
      <polygon class="st4" points="1074.1 603.6 1062.5 603.6 1059 614.7 1055.4 603.6 1043.8 603.6 1053.2 596.8 1049.6 585.8 1059 592.6 1068.3 585.8 1064.7 596.8 1074.1 603.6"/>
      <polygon class="st4" points="1086.4 552.5 1075 554.3 1073.1 565.7 1067.9 555.4 1056.4 557.2 1064.6 549 1059.4 538.7 1069.7 543.9 1077.9 535.7 1076.1 547.2 1086.4 552.5"/>
      <polygon class="st4" points="1090.5 500 1079.5 503.6 1079.5 515.2 1072.7 505.8 1061.7 509.4 1068.5 500 1061.7 490.6 1072.7 494.2 1079.5 484.8 1079.5 496.4 1090.5 500"/>
      <polygon class="st4" points="1086.4 447.5 1076.1 452.8 1077.9 464.3 1069.7 456.1 1059.4 461.3 1064.6 451 1056.4 442.8 1067.9 444.6 1073.1 434.3 1075 445.7 1086.4 447.5"/>
      <polygon class="st4" points="1074.1 396.4 1064.7 403.2 1068.3 414.2 1059 407.4 1049.6 414.2 1053.2 403.2 1043.8 396.4 1055.4 396.4 1059 385.3 1062.5 396.4 1074.1 396.4"/>
      <polygon class="st4" points="1054 347.8 1045.8 355.9 1051.1 366.3 1040.7 361 1032.5 369.2 1034.3 357.8 1024 352.5 1035.5 350.7 1037.3 339.2 1042.5 349.6 1054 347.8"/>
      <polygon class="st4" points="1026.5 302.9 1019.7 312.3 1026.5 321.6 1015.5 318.1 1008.7 327.4 1008.7 315.8 997.6 312.3 1008.7 308.7 1008.7 297.1 1015.5 306.5 1026.5 302.9"/>
      <polygon class="st4" points="992.3 262.9 987.1 273.2 995.3 281.4 983.8 279.6 978.5 289.9 976.7 278.5 965.3 276.6 975.6 271.4 973.8 259.9 982 268.1 992.3 262.9"/>
      <polygon class="st4" points="952.3 228.7 948.7 239.7 958.1 246.5 946.5 246.5 942.9 257.6 939.3 246.5 927.7 246.5 937.1 239.7 933.5 228.7 942.9 235.5 952.3 228.7"/>
      <polygon class="st4" points="907.4 201.2 905.6 212.6 915.9 217.9 904.5 219.7 902.7 231.2 897.4 220.8 886 222.7 894.2 214.5 888.9 204.1 899.2 209.4 907.4 201.2"/>
      <polygon class="st4" points="858.8 181.1 858.8 192.7 869.8 196.2 858.8 199.8 858.8 211.4 852 202 841 205.6 847.8 196.2 841 186.9 852 190.4 858.8 181.1"/>
      <polygon class="st4" points="807.6 168.8 809.5 180.2 820.9 182 810.6 187.3 812.4 198.8 804.2 190.6 793.9 195.8 799.1 185.5 790.9 177.3 802.4 179.1 807.6 168.8"/>
    </g>
  </g>
  <rect x="387.4" y="619.9" width="735.6" height="10.9"/>
  <g>
    <polygon class="st0" points="621.8 781.9 612.1 781.9 595.3 799.6 595.3 781.9 586.6 781.9 586.6 819.8 595.3 819.8 595.3 810.2 600.3 805 612.5 819.8 622.8 819.8 606.2 798.9 621.8 781.9"/>
    <path class="st0" d="M649,781.9l-16.8,37.9h9l3.4-8.1h17.6l3.4,8.1h9.2l-17-37.9h-8.7ZM647.3,805.1l6-14.5,6,14.5h-12Z"/>
    <path class="st0" d="M715.9,807.6c2.5-1.1,4.3-2.6,5.7-4.7,1.3-2,2-4.5,2-7.3,0-4.3-1.5-7.6-4.4-10-2.9-2.4-7-3.7-12.3-3.7h-16.2v37.9h8.8v-10.6h7.6c.1,0,.2,0,.4,0l7.4,10.6h9.4l-8.4-12.2s0,0,0,0ZM712.7,790.8c1.4,1.1,2.1,2.8,2.1,4.8s-.7,3.7-2.1,4.9c-1.4,1.2-3.4,1.7-6.1,1.7h-7.1v-13.2h7.1c2.7,0,4.7.6,6.1,1.7Z"/>
    <path class="st0" d="M754.5,781.9l-16.8,37.9h9l3.4-8.1h17.6l3.4,8.1h9.2l-17-37.9h-8.7ZM752.8,805.1l6-14.5,6,14.5h-12Z"/>
    <path class="st0" d="M828.9,786.8c-1.9-1.8-4.1-3.1-6.6-4.1-2.5-1-5.3-1.4-8.3-1.4s-5.7.5-8.3,1.5c-2.5,1-4.7,2.3-6.6,4.1-1.9,1.8-3.3,3.8-4.4,6.2-1,2.4-1.5,5-1.5,7.8s.5,5.4,1.5,7.8,2.5,4.5,4.4,6.2c1.9,1.8,4.1,3.1,6.6,4.1,2.5,1,5.3,1.5,8.3,1.5s5.7-.5,8.2-1.4c2.5-1,4.7-2.3,6.6-4.1s3.3-3.9,4.4-6.3c1-2.4,1.5-5,1.5-7.8s-.5-5.5-1.5-7.9-2.5-4.5-4.4-6.2ZM825,805.8c-.6,1.5-1.4,2.7-2.5,3.8-1.1,1.1-2.3,1.9-3.8,2.5-1.4.6-3,.9-4.7.9s-3.3-.3-4.7-.9c-1.4-.6-2.7-1.4-3.8-2.5s-1.9-2.4-2.5-3.8c-.6-1.5-.9-3.1-.9-4.9s.3-3.4.9-4.9c.6-1.5,1.4-2.7,2.5-3.8,1.1-1.1,2.3-1.9,3.8-2.5,1.4-.6,3-.9,4.7-.9s3.3.3,4.7.9c1.4.6,2.7,1.4,3.8,2.5,1.1,1.1,1.9,2.4,2.5,3.8.6,1.5.9,3.1.9,4.9s-.3,3.4-.9,4.9Z"/>
    <polygon class="st0" points="888.8 781.9 879 781.9 862.3 799.6 862.3 781.9 853.5 781.9 853.5 819.8 862.3 819.8 862.3 810.2 867.3 805 879.5 819.8 889.8 819.8 873.1 798.9 888.8 781.9"/>
    <polygon class="st0" points="914.5 812.8 914.5 804 932.1 804 932.1 797.2 914.5 797.2 914.5 789 934.4 789 934.4 781.9 905.7 781.9 905.7 819.8 935.1 819.8 935.1 812.8 914.5 812.8"/>
  </g>
  <rect class="st1" x="387.4" y="751.5" width="735.6" height="10.9"/>
  <g>
    <path class="st1" d="M412.8,654.9c0,3.3,1.4,3.6,2.8,4.1,1.4.4,2.8,1,2.8,5.4v54.2c0,8.7-5.6,2.4-5.6,9.8v1.6h28.1v-1.6c0-7.3-6.1-1.1-6.1-9.8v-24.6h7.8c7.3,0,3.7,8.1,8.7,8.1h3.5v-21.9h-1.6c-6.9,0-1.7,7.7-10.4,7.7h-7.7v-28.8h12.2c11.5,0,7.5,12.2,13.2,12.2h3v-18.3h-50.7v2Z"/>
    <path class="st1" d="M500,650.9c-18.6,0-31.6,16.7-31.6,40.5s13,40.4,31.7,40.4,31.6-16.7,31.6-40.5-13-40.4-31.7-40.4ZM500.1,724.5c-12.7,0-14.1-23.1-14.1-33.1s1.4-33,14-33,14.1,23.1,14.1,33.1-1.4,33-14,33Z"/>
    <path class="st1" d="M599,721.4l-11.1-20c-3.7-6.8-5.8-9.6-13.6-10.2v-.2h2.7c9.2,0,20.8-3.9,20.8-19.3s-11.6-18.7-18.7-18.7h-39.4v2c0,6.8,5.6,1,5.6,9.4v54.2c0,8.4-5.6,2.6-5.6,9.4v2h27.6v-2c0-6.8-5.6-1-5.6-9.4v-24.4h.9c3.2,0,5.6,5.4,7.1,8.3l13.8,27.5h21.7v-2c0-5.7-3.3-1.2-6.3-6.6ZM566.6,688h-4.7v-28.9h8.6c3.2,0,10.1,3.4,10.1,13.8s-7.9,15.1-14,15.1Z"/>
    <path class="st1" d="M643.8,723.8h-12v-30.8h6.7c7.3,0,3.5,8.1,9.3,8.1h2.7v-21.9h-1.8c-6.9,0-1.5,7.7-10.2,7.7h-6.7v-27.8h10.6c11.5,0,8.1,12,14,12h3v-18.1c-8.7,0-24.5.2-24.8,0h-24.8v2c0,6.8,5.6,1,5.6,9.4v54.2c0,8.4-5.6,2.6-5.6,9.4v2h51.2v-20.3h-2.4c-7.7,0-.5,14.1-14.7,14.1Z"/>
    <path class="st1" d="M779.3,718.7l-23-64.1c-.2-.6-.4-1.2-.6-1.7h-18.4s1.1,5.6,6.8,9.2l-1,2.8-7.4,20.7-10.3,29c-5.4,15.1-9.3,5.4-9.3,13.7v1.6h20.8v-1.6c0-7.3-6.7-1.4-6.7-7.3s.8-4.2,1.5-5.8l2.9-7.3h23.2l3.9,10.1c.5,1.2.9,2.2.9,3.5,0,4.7-5.5-.5-5.5,6.9v1.6h29.8v-1.6c0-7.8-4.5-.8-7.6-9.5ZM736.4,701.6l9.7-27.4,10,27.4h-19.6Z"/>
    <path class="st1" d="M778.8,671.3h2.8c6.8,0-2-12.7,14.9-12.7h3.7v59.9c0,8.7-6.4,2.4-6.4,9.8v1.6h29.2v-1.6c0-7.3-6.4-1.1-6.4-9.8v-59.9h3.7c16.9,0,8.2,12.7,14.9,12.7h2.8v-18.4h-59.3v18.4Z"/>
    <path class="st1" d="M879,654.6c0,7.3,5.6,1.1,5.6,9.7v22.9h-20.4v-22.9c0-8.7,5.6-2.4,5.6-9.7v-1.6h-27.6v1.6c0,7.3,5.6,1.1,5.6,9.7v54.2c0,8.7-5.6,2.4-5.6,9.7v1.6h27.6v-1.6c0-7.3-5.6-1.1-5.6-9.7v-24.8h20.4v24.8c0,8.7-5.9,2.4-5.9,9.7v1.6h27.9v-1.6c0-7.3-5.6-1.1-5.6-9.7v-54.2c0-8.7,5.6-2.4,5.6-9.7v-1.6h-27.6v1.6Z"/>
    <path class="st1" d="M1035.6,721.4l-11.1-20c-3.7-6.8-5.8-9.6-13.6-10.2v-.2h2.7c9.2,0,20.8-3.9,20.8-19.3s-11.6-18.7-18.7-18.7h-39.4v2c0,6.8,5.6,1,5.6,9.4v54.2c0,8.4-5.6,2.6-5.6,9.4v2h27.6v-2c0-6.8-5.6-1-5.6-9.4v-24.4h.9c3.2,0,5.6,5.4,7.1,8.3l13.8,27.5h21.7v-2c0-5.7-3.3-1.2-6.3-6.6ZM1003.1,688h-4.7v-28.9h8.6c3.2,0,10.1,3.4,10.1,13.8s-7.9,15.1-14,15.1Z"/>
    <path class="st1" d="M1062.8,667.3c0-6.4,4.9-10.2,10.3-10.2,14.3,0,9.9,15.9,16.9,15.9h3.2v-19.4h-4.7c-.3,1.1-.9,2.3-2.1,2.3s-2.8-1.2-5.2-2.5c-2.4-1.2-5.6-2.4-9.8-2.4-11.5,0-23.1,9.1-23.1,22.6,0,27.9,36,21.5,36,39.7s-5.8,12.6-12,12.6c-17.9,0-16.3-16.2-21-16.2h-3.9v20.4h6.2c0-1.3.7-2.3,2-2.3,2.5,0,7.3,4.3,16.2,4.3,13.6,0,26.9-11,26.9-26.7,0-28.6-36-21.2-36-37.9Z"/>
    <path class="st1" d="M700.8,687.8h-7.7v-28.8h12.2c11.5,0,7.5,12.2,13.2,12.2h3v-18.3h-50.7v2c0,3.3,1.4,3.6,2.8,4.1,1.4.4,2.8,1,2.8,5.4v54.2c0,8.7-5.6,2.4-5.6,9.8v1.6h28.1v-1.6c0-7.3-6.1-1.1-6.1-9.8v-24.6h7.8c7.3,0,3.7,8.1,8.7,8.1h3.5v-21.9h-1.6c-6.9,0-1.7,7.7-10.4,7.7Z"/>
    <path class="st1" d="M950.2,723.8h-12v-30.8h6.7c7.3,0,3.5,8.1,9.3,8.1h2.7v-21.9h-1.8c-6.9,0-1.5,7.7-10.2,7.7h-6.7v-27.8h10.6c11.5,0,8.1,12,14,12h3v-18.1c-8.7,0-24.5.2-24.8,0h-24.8v2c0,6.8,5.6,1,5.6,9.4v54.2c0,8.4-5.6,2.6-5.6,9.4v2h51.2v-20.3h-2.4c-7.7,0-.5,14.1-14.7,14.1Z"/>
  </g>
  <g>
    <path class="st4" d="M1136.9,571c-.6-6.5-2.3-17.7-4.2-30.6-4.4-29.3-10.4-69.5-10.1-93.9.2-16.9-3-27.3-10.1-32.9-8.9-7-22.2-5.6-40.8-1-90.8,22.5-258.5-19.6-375.9-68.2-126-52.2-242.3-41.8-286.4-34.9-23.1,3.6-40.1,14.7-45.4,29.6-2.6,7.3-1.8,14.4,2,19,19.3,33.8,49.2,105.7,52.6,153.5,0,.9,0,1.8,0,2.6.9,8.7,5.2,16.2,12.1,21.2,10.9,7.9,27.3,9.5,49,4.9,38.5-8.3,78.6-3.5,119.6,2.5,34.8,5.1,137.5,25.3,215.9,51.8,78.9,26.7,99.7,31.2,211.5,34.8,5,.2,9.9.2,14.5.2,44.2,0,72.5-7.2,86.3-21.8,11.6-12.4,10.2-27.1,9.3-36.9ZM406.6,428.5c-7.7-21.2-17.1-43-26.3-61,9.8,3.2,21.1,2.5,31,0h0c0,.1,3.9-1.1,3.9-1.1,7.4-2.4,14.3-5.9,19.4-10,1.2-1,2.2-1.9,3.2-2.9,8.7,50.1,20.6,81.2,38.9,116.6-2.4-.3-5.1-.4-8.2,0-6.7.7-13.4,2.6-19.8,5.6,0,0,0,0,0,0l-2.6,1.2h0c-8.8,4.7-16.2,11.3-21.2,18.3-3.8-23.4-11.7-48.3-18.3-66.6ZM413.1,339.5c2.5-2,6.7-4.5,12.3-4.5h.2c5,0,9.2,2.2,10,5,0,.2,0,.4.1.6.2,2.5-2.1,5.9-6.2,9.2-3.4,2.8-7.9,5.3-12.9,7.2l-4.5-14.1c-.4-1.3,0-2.7,1.1-3.6ZM482.9,481.8h0c0,.1,0,.2,0,.2h0c1,1.9.9,4.3-.1,6.8-1.8,4.1-5.9,7.3-11,8.6-4.8,1.2-8.3.9-10.8-.9-3.1-2.2-5.2-7-6.3-14.8,4.7-1.9,9.6-3.2,14.4-3.7,6.8-.7,11.8.7,13.7,3.8ZM1121.6,602.3c-13.3,14.2-45.1,20.6-94.6,19-110.7-3.5-131.2-8-209.1-34.4-79-26.7-182.3-47-217.3-52.1-41.8-6.2-82.6-11-122.5-2.4-19,4.1-33.7,2.9-42.5-3.5-6.4-4.6-8.3-11-8.8-15.5,0-.5,0-1.1,0-1.6v-.2c.4-7.4,7.6-18.4,20.4-26,1.2,6.8,3.7,13.7,9.3,17.6,2.9,2,6.4,3,10.3,3s4.6-.3,7.1-.9c7.5-1.9,13.6-6.8,16.5-13.2,2.1-4.8,2.1-9.9-.2-14,0,0,0,0,0,0h0c-23.6-43.7-36.6-75.7-46.3-138.4,0-.4-.1-.9-.2-1.4-1.5-6.8-8.7-11.4-17.9-11.5-8,0-14,3.4-17.6,6.3-3.7,2.9-5.2,7.9-3.7,12.4l4.5,14.1c-12.7,3.2-27.9,3-36.4-6.6-2.1-2.3-2.4-6.7-.8-11.2,1.6-4.5,9.2-19.6,39-24.3,43.5-6.8,157.9-17,282,34.4,95.8,39.7,225.1,75,320,75s43.2-2,60.9-6.4c18.6-4.6,28.4-4.8,33.8-.5,4.8,3.8,7.1,12.5,7,26.4-.3,25,5.8,65.6,10.2,95.2,1.9,12.9,3.6,23.9,4.2,30.2.9,9.3,2,20.8-7.1,30.5Z"/>
    <path class="st5" d="M482.9,488.8c-1.8,4.1-5.9,7.3-11,8.6-4.8,1.2-8.3.9-10.8-.9-3.1-2.2-5.2-7-6.3-14.8,4.7-1.9,9.6-3.2,14.4-3.7,6.8-.7,11.8.7,13.7,3.8h0c0,.1,0,.2,0,.2h0c1,1.9.9,4.3-.1,6.8Z"/>
    <path class="st5" d="M435.7,340.7c.2,2.5-2.1,5.9-6.2,9.2-3.4,2.8-7.9,5.3-12.9,7.2l-4.5-14.1c-.4-1.3,0-2.7,1.1-3.6,2.5-2,6.7-4.5,12.3-4.5h.2c5,0,9.2,2.2,10,5,0,.2,0,.4.1.6Z"/>
    <path class="st5" d="M476.6,470c-2.4-.3-5.1-.4-8.2,0-6.7.7-13.4,2.6-19.8,5.6,0,0,0,0,0,0l-2.6,1.2h0c-8.8,4.7-16.2,11.3-21.2,18.3-3.8-23.4-11.7-48.3-18.3-66.6-7.7-21.2-17.1-43-26.3-61,9.8,3.2,21.1,2.5,31,0h0c0,.1,3.9-1.1,3.9-1.1,7.4-2.4,14.3-5.9,19.4-10,1.2-1,2.2-1.9,3.2-2.9,8.7,50.1,20.6,81.2,38.9,116.6Z"/>
    <path class="st5" d="M1121.6,602.3c-13.3,14.2-45.1,20.6-94.6,19-110.7-3.5-131.2-8-209.1-34.4-79-26.7-182.3-47-217.3-52.1-41.8-6.2-82.6-11-122.5-2.4-19,4.1-33.7,2.9-42.5-3.5-6.4-4.6-8.3-11-8.8-15.5,0-.5,0-1.1,0-1.6v-.2c.4-7.4,7.6-18.4,20.4-26,1.2,6.8,3.7,13.7,9.3,17.6,2.9,2,6.4,3,10.3,3s4.6-.3,7.1-.9c7.5-1.9,13.6-6.8,16.5-13.2,2.1-4.8,2.1-9.9-.2-14,0,0,0,0,0,0h0c-23.6-43.7-36.6-75.7-46.3-138.4,0-.4-.1-.9-.2-1.4-1.5-6.8-8.7-11.4-17.9-11.5-8,0-14,3.4-17.6,6.3-3.7,2.9-5.2,7.9-3.7,12.4l4.5,14.1c-12.7,3.2-27.9,3-36.4-6.6-2.1-2.3-2.4-6.7-.8-11.2,1.6-4.5,9.2-19.6,39-24.3,43.5-6.8,157.9-17,282,34.4,95.8,39.7,225.1,75,320,75s43.2-2,60.9-6.4c18.6-4.6,28.4-4.8,33.8-.5,4.8,3.8,7.1,12.5,7,26.4-.3,25,5.8,65.6,10.2,95.2,1.9,12.9,3.6,23.9,4.2,30.2.9,9.3,2,20.8-7.1,30.5Z"/>
  </g>
  <g>
    <path class="st1" d="M892.3,365.5c-6.7-7.1-22.4-26.9-28.9-35-1.3-1.6-1.7-3.7-1.1-5.6l2.7-9.6c.5-1.8.5-3.7,0-5.4-10.1-35-31-61.4-60.4-76.3-32.2-16.3-72-17.2-112.1-2.4-31.6,11.6-49.7,32.3-60,52-3.4,6.5-6,12.9-7.9,18.8-7.3,22.5-7,41.9-6.8,47-2.4,4.5-11.2,22.3-11.2,34.5s15.9,21.5,23.8,25.5c-3.4,6.1-10,18.4-14.3,31.8-2.9-2.2-13.2-9.3-25.8-10.6-17.7,17.2-17.7,40.1-17.7,40.1h31c-23.4,37.4-24.6,70.7-24.5,78.9-7.3,7.6-44.5,47-57,74.6l-2.6,5.8h365.6l-.6-4.6c-.3-2.2-7.3-53.3-48.9-83.1-7-4.8-17.2-9.9-23.4-12.9,2.7-3.5,5.7-8.7,5.6-15.2,0-2.5-.5-5-1.4-7.5-1.1-3-3-5.9-5.5-8.7,15.5-10.5,29.7-17.6,47-18.2,2.1,0,4-.3,5.7-.6,9.7-1.9,14-7.4,15.7-10.8,3.3-6.5,2.5-15-2.1-21.7-4.6-6.8-.9-11.2-.5-11.7,6.2-6.2,5.7-12.7-.7-17.1,2.2-2.3,4.9-6.6,1.6-12.2-3-5-4.2-10.1-1.9-12.5,2.5-.4,4.9-.8,7-1.4.2,0,.4,0,.6-.2.3,0,.7-.2,1-.3.4-.1.8-.3,1.1-.4,5.3-2,9-5.1,10.8-9.1,2.2-5.1.8-10.8-3.8-15.7ZM641.6,388.1c-6.2-2.3-10.5-6.1-9.9-12.3.6-5.1,3.5-8.2,3.5-8.2,0,0,3.5,1.8,9.9,3.3-3.5,4.5-4.3,11.2-3.5,17.3ZM635.1,348c.8-5.1,4.6-10.8,17.4-10.4-6.8,5.6-8.7,14.5-6.5,23.8-10.3-2.1-11.7-8.5-11-13.4ZM651,390.4c-2.1-4.4-4.3-12.4,3-18,3.3.4,7,.7,11,.7h13.9c-2.9,3.3-7.1,9.8-5.9,19-6.3-.3-12-.6-15.6-.9-2.2-.2-4.4-.4-6.5-.8ZM681.1,363.2c-8-.1-16.1-.3-22.6-.7-2.9-2.2-5.6-5.5-5.6-10.6,0-7.4,5.9-11.9,9.6-14,6.8.2,15.7.3,24.8.4-7.3,4.9-12.1,16.1-6.2,24.9ZM830.9,548.4c31.6,22.7,41.9,60,44.6,72.9h-30.2l-30.3-61.6s-113.1-74.7-150.5-109.6l9.8-21.8s68.9,56.6,133.8,79.2c1,2.1,1.6,4.1,1.6,6.2,0,6.4-4.8,11.4-6.4,12.8-1.2,1.1-1.7,2.6-1.5,4.2.2,1.6,1.2,2.9,2.7,3.6,2.9,1.3,17.7,8.2,26.4,14.1ZM704,442c3.8-2.5,12.2-8.3,17.7-15.3,13,22.9,27.4,41.2,33.1,48.1-19.6-11.2-37.4-23.1-50.8-32.8ZM888.6,378c-.8,1.9-3.3,4-7.9,5.3-2.8.6-5.1,0-9.5.3-4.8.3-6.4,1.6-10.8,2.1-1,0-2,.2-2.9.2-6.7.5-7.6-7.4-4.4-13.3-11.9,5.4-8.5,18.8-.8,20.2,2.5.4,5.9.7,9.6.7h0c7.2.4,8.1,8.9,8.1,13.9,0,5-13.8,7.6-19.8,7.7-6,0-6.6-1.6-6.6-1.6,0,0-6.7,5.4-7.6,12.3,6.1-6.4,11.3-4.1,23.3-5.6,12-1.5,15.7.9,14.7,4.9-1,4-7,4.5-16.3,4.8,5,1.4,9.4,6.1,9.4,6.1h0c-.9,4-.5,9.1,3.3,14.7,2.9,4.2,3.5,9.5,1.5,13.4-2.2,4.3-7.1,6.7-14.4,7,0,0-13.1-5.3-42.2-8.6-29.1-3.3-63.6-12.1-76.8-49.8,0,0,17.2-5.4,15.3-28.5,18.2,8.6,32.2,15.2,38.4,26.5,6.5,11.8,7.6,13.6,7.6,13.6-2.2-21.3-1.8-29.6-20.6-41.2-14.9-9.2-23.9-14.3-28.4-20.4-1.4-11.5-.4-19.6,9.4-31.3,14.6-17.3,16.7-21.6,2.3-34.4-13.9-12.4-22.5-19.3-23-19.8.5.7,13.5,17.5,19.3,24.9,5.8,7.6,6.1,12.2-3,23.2-9,11-15.3,24.8-12,44.4,3.2,19.5,4.1,35.2-12.8,35.2s-20.3-11.3-20.3-11.3c0,0-14.9-.5-29.6-1.1-1.8-3.8-4.1-12.2,4.9-19.4h30.3l5.7-2-8.9-6.2c-1.2-.8-2.7-1.3-4.2-1.3-3.8,0-12,0-21.2-.2-3.1-3.5-10-13.8,4.1-24.9,17.8.2,34.6.2,34.6.2,0,0-2.9-5.7-16.3-5.7h-56c-8,0-28.2-12.6-12.1-50.2h0c11.8-20.5,29.7-35.3,53.4-44,38-14,75.5-13.2,105.6,2.1,27.3,13.8,46.7,38.5,56.2,71.2,0,.3,0,.6,0,.9l-2.7,9.6c-1.3,4.4-.3,9.3,2.6,12.9,6.5,8.2,22.5,28.2,29.3,35.5,1.3,1.4,3.4,4.2,2.3,6.9Z"/>
    <path class="st2" d="M875.5,621.3h-30.2l-30.3-61.6s-113.1-74.7-150.5-109.6l9.8-21.8s68.9,56.6,133.8,79.2c1,2.1,1.6,4.1,1.6,6.2,0,6.4-4.8,11.4-6.4,12.8-1.2,1.1-1.7,2.6-1.5,4.2.2,1.6,1.2,2.9,2.7,3.6,2.9,1.3,17.7,8.2,26.4,14.1,31.6,22.7,41.9,60,44.6,72.9Z"/>
    <path class="st2" d="M754.8,474.8c-19.6-11.2-37.4-23.1-50.8-32.8,3.8-2.5,12.2-8.3,17.7-15.3,13,22.9,27.4,41.2,33.1,48.1Z"/>
    <path class="st2" d="M641.6,388.1c-6.2-2.3-10.5-6.1-9.9-12.3.6-5.1,3.5-8.2,3.5-8.2,0,0,3.5,1.8,9.9,3.3-3.5,4.5-4.3,11.2-3.5,17.3Z"/>
    <path class="st2" d="M673.1,392.1c-6.3-.3-12-.6-15.6-.9-2.2-.2-4.4-.4-6.5-.8-2.1-4.4-4.3-12.4,3-18,3.3.4,7,.7,11,.7h13.9c-2.9,3.3-7.1,9.8-5.9,19Z"/>
    <path class="st2" d="M646.1,361.5c-10.3-2.1-11.7-8.5-11-13.4.8-5.1,4.6-10.8,17.4-10.4-6.8,5.6-8.7,14.5-6.5,23.8Z"/>
    <path class="st2" d="M681.1,363.2c-8-.1-16.1-.3-22.6-.7-2.9-2.2-5.6-5.5-5.6-10.6,0-7.4,5.9-11.9,9.6-14,6.8.2,15.7.3,24.8.4-7.3,4.9-12.1,16.1-6.2,24.9Z"/>
    <path class="st2" d="M886.3,371.1c-6.9-7.3-22.8-27.3-29.3-35.5-2.9-3.6-3.8-8.4-2.6-12.9l2.7-9.6c0-.3,0-.6,0-.9-9.5-32.8-28.9-57.4-56.2-71.2-30.2-15.3-67.7-16-105.6-2.1-23.7,8.7-41.5,23.4-53.4,43.9h0c-16.1,37.6,4.1,50.2,12.1,50.2h56c13.4,0,16.3,5.7,16.3,5.7,0,0-16.8,0-34.6-.2-14.1,11.2-7.1,21.5-4.1,24.9,9.2.1,17.4.2,21.2.2,1.5,0,3,.5,4.2,1.3l8.9,6.2-5.7,2h-30.3c-9,7.2-6.7,15.6-4.9,19.4,14.6.6,29.6,1.1,29.6,1.1,0,0,3.4,11.3,20.3,11.3s16-15.6,12.8-35.2c-3.2-19.5,3-33.4,12-44.4,9.1-11,8.8-15.5,3-23.2-5.7-7.5-18.7-24.2-19.3-24.9.5.4,9.1,7.4,23,19.8,14.4,12.8,12.3,17.1-2.3,34.4-9.9,11.7-10.8,19.8-9.4,31.3,4.5,6.1,13.5,11.2,28.4,20.4,18.8,11.6,18.4,19.9,20.6,41.2,0,0-1.2-1.8-7.6-13.6-6.2-11.3-20.1-17.9-38.4-26.5,1.9,23.1-15.3,28.5-15.3,28.5,13.2,37.7,47.7,46.5,76.8,49.8,29.1,3.3,42.2,8.6,42.2,8.6,7.3-.3,12.3-2.7,14.4-7,2-3.9,1.4-9.2-1.5-13.4-3.8-5.5-4.2-10.6-3.3-14.7h0s-4.4-4.7-9.4-6.1c9.3-.3,15.3-.8,16.3-4.8,1-4-2.8-6.4-14.7-4.9-12,1.5-17.1-.8-23.3,5.6,1-6.8,7.6-12.3,7.6-12.3,0,0,.6,1.7,6.6,1.6,6,0,19.8-2.7,19.8-7.7,0-5-1-13.5-8.1-13.9h0c-3.7,0-7.1-.3-9.6-.7-7.7-1.4-11.1-14.7.8-20.2-3.2,5.9-2.3,13.8,4.4,13.3.9,0,1.9-.2,2.9-.2,4.4-.5,6-1.7,10.8-2.1,4.4-.3,6.7.3,9.5-.3,4.6-1.3,7.1-3.4,7.9-5.3,1.2-2.7-.9-5.5-2.3-6.9ZM719.7,397c-3.4,0-6.1-4.5-6.1-10s2.7-10,6.1-10,6.1,4.5,6.1,10-2.7,10-6.1,10ZM720.5,363.5c-3.6,0-6.5-4.8-6.5-10.6s2.9-10.6,6.5-10.6,6.5,4.7,6.5,10.6-2.9,10.6-6.5,10.6ZM850.7,316.7c-2.2,7.9-6.3,18.6-11.6,22.7-5.3,4.1,2,11.6-7.9,14.2,2.9-3.5,5-8-1.9-8.6-7-.7-20.8-1-20.8-1,0,0,21-10.3,24-12,3-1.8,1.7-3.8-1.3-6.2-3-2.4-5.8-3.6-11.6,0-5.7,3.6-22.9,12.9-23.4,13.2,12.6-18.1,25.5-28.5,35.9-28.5s20.8-1.5,18.6,6.3Z"/>
    <path class="st1" d="M850.7,316.7c-2.2,7.9-6.3,18.6-11.6,22.7-5.3,4.1,2,11.6-7.9,14.2,2.9-3.5,5-8-1.9-8.6-7-.7-20.8-1-20.8-1,0,0,21-10.3,24-12,3-1.8,1.7-3.8-1.3-6.2-3-2.4-5.8-3.6-11.6,0-5.7,3.6-22.9,12.9-23.4,13.2,12.6-18.1,25.5-28.5,35.9-28.5s20.8-1.5,18.6,6.3Z"/>
    <path class="st1" d="M727,352.9c0,5.9-2.9,10.6-6.5,10.6s-6.5-4.8-6.5-10.6,2.9-10.6,6.5-10.6,6.5,4.7,6.5,10.6Z"/>
    <ellipse class="st1" cx="719.7" cy="387" rx="6.1" ry="10"/>
  </g>
  <path class="st2" d="M970.6,425.9c0,1.6-.1,3.1-.3,4.6l-24.9,27.7c-3,.8-6.1,1.3-9.4,1.3-19.1,0-34.6-15.1-34.6-33.7s15.5-33.7,34.6-33.7,34.6,15.1,34.6,33.7Z"/>
  <path class="st1" d="M1102.2,573.9c1.6-1.6,3.3-3.5,4.8-5.8l-15.6-15.6,1.7-7-24.9-23.7c1.9-6.8,3-13.4,3.4-19.4.7-12-1.4-20-6.4-24.6-2.6-2.4-6-3.7-10-3.8-.5-5.2-2.4-9.2-5.7-12-3.6-3-8-3.7-11.2-3.8-.6-10.3-7.3-14-17.3-15.4,0-2-.2-3.6-.6-4.7-1.6-5.4-6.4-9.1-12.5-9.7-7.6-.7-14.6,4.3-19.1,12.7l-12.6-13.1c0-.7,0-1.3,0-2,0-21.8-18.1-39.5-40.4-39.5s-40.4,17.7-40.4,39.5,18.1,39.5,40.4,39.5,4.6-.2,6.8-.6l12.9,11.4c-3.4,5.5-5.4,11.4-5.8,16.6-.7,9.7,5.3,25.9,17.9,48.2l-11.5,3.2c-1.2.3-2.2,1.1-2.8,2.2-.6,1.1-.7,2.4-.3,3.5.6,1.8,1.3,3.6,2.1,5.5,1.5,3.5,3.2,6.9,4.2,8.9l-40.3,64.6h123.7l4.2-16c1.9-.7,3.8-1.5,5.6-2.4,5.9-2.8,10.9-6.3,13.3-8,1.2-.8,1.9-2.1,2.1-3.6.2-1.4-.2-2.9-1.1-4l-8.8-10.8c-.4-2.4-1.9-8.1-5.7-11.7-3.6-3.3-7.3-4.5-11.9-3.5,4.3-3.7,8.2-8.2,11.7-13.2l17.4,14.2,2.6-.6,4.6-1,14.3,13.4s2.4-1,5.8-3.4c9,12.3,9.5,23.6,6.7,47.3l6.9.8c3-24.6,2.5-38.2-8.3-52.7ZM904.1,437h-.8c-.5-1.2-.8-2.5-1.1-3.8h1.9v3.8ZM904.1,430.9h-2.4c-.2-1.3-.3-2.5-.3-3.8h2.7v3.8ZM904.1,424.7h-2.7c0-1.3.1-2.6.3-3.8h2.4v3.8ZM904.1,418.6h-1.9c.3-1.3.7-2.6,1.1-3.8h.8v3.8ZM910.2,448.4c-.8-.9-1.6-1.9-2.4-2.9h2.4v2.9ZM910.2,443.2h-3.8v-3.8h3.8v3.8ZM910.2,437h-3.8v-3.8h3.8v3.8ZM910.2,430.9h-3.8v-3.8h3.8v3.8ZM910.2,424.7h-3.8v-3.8h3.8v3.8ZM910.2,418.6h-3.8v-3.8h3.8v3.8ZM910.2,412.5h-3.8v-3.8h3.8v3.8ZM910.2,406.3h-2.4c.7-1,1.5-2,2.4-2.9v2.9ZM916.3,453.6c-.9-.6-1.8-1.3-2.7-2h2.7v2ZM916.3,449.3h-3.8v-3.8h3.8v3.8ZM916.3,443.2h-3.8v-3.8h3.8v3.8ZM916.3,437h-3.8v-3.8h3.8v3.8ZM916.3,430.9h-3.8v-3.8h3.8v3.8ZM916.3,424.7h-3.8v-3.8h3.8v3.8ZM916.3,418.6h-3.8v-3.8h3.8v3.8ZM916.3,412.5h-3.8v-3.8h3.8v3.8ZM916.3,406.3h-3.8v-3.8h3.8v3.8ZM916.3,400.2h-2.7c.9-.7,1.7-1.4,2.7-2v2ZM922.5,455.5h-3c.1,0,.2.1.3.2-.1,0-.3-.1-.4-.2h0c-.3-.1-.5-.3-.8-.4v-3.4h3.8v3.8ZM922.5,449.3h-3.8v-3.8h3.8v3.8ZM922.5,443.2h-3.8v-3.8h3.8v3.8ZM922.5,437h-3.8v-3.8h3.8v3.8ZM922.5,430.9h-3.8v-3.8h3.8v3.8ZM922.5,424.7h-3.8v-3.8h3.8v3.8ZM922.5,418.6h-3.8v-3.8h3.8v3.8ZM922.5,412.5h-3.8v-3.8h3.8v3.8ZM922.5,406.3h-3.8v-3.8h3.8v3.8ZM922.5,400.2h-3.8v-3.4c.2-.1.5-.3.7-.4h0c.1,0,.2-.1.4-.2-.1,0-.2.1-.3.2h3.1v3.8ZM928.6,458.8c-1.3-.3-2.5-.6-3.7-1h3.7v1ZM928.6,455.5h-3.8v-3.8h3.8v3.8ZM928.6,449.3h-3.8v-3.8h3.8v3.8ZM928.6,443.2h-3.8v-3.8h3.8v3.8ZM928.6,437h-3.8v-3.8h3.8v3.8ZM928.6,430.9h-3.8v-3.8h3.8v3.8ZM928.6,424.7h-3.8v-3.8h3.8v3.8ZM928.6,418.6h-3.8v-3.8h3.8v3.8ZM928.6,412.5h-3.8v-3.8h3.8v3.8ZM928.6,406.3h-3.8v-3.8h3.8v3.8ZM928.6,400.2h-3.8v-3.8h3.8v3.8ZM928.6,394h-3.7c1.2-.4,2.5-.7,3.7-1v1ZM934.8,459.5c-1.3,0-2.6-.1-3.8-.3v-1.4h3.8v1.7ZM934.8,455.5h-3.8v-3.8h3.8v3.8ZM934.8,449.3h-3.8v-3.8h3.8v3.8ZM934.8,443.2h-3.8v-3.8h3.8v3.8ZM934.8,437h-3.8v-3.8h3.8v3.8ZM934.8,430.9h-3.8v-3.8h3.8v3.8ZM934.8,424.7h-3.8v-3.8h3.8v3.8ZM934.8,418.6h-3.8v-3.8h3.8v3.8ZM934.8,412.5h-3.8v-3.8h3.8v3.8ZM934.8,406.3h-3.8v-3.8h3.8v3.8ZM934.8,400.2h-3.8v-3.8h3.8v3.8ZM934.8,394h-3.8v-1.4c1.3-.2,2.5-.3,3.8-.3v1.7ZM940.9,459.2c-1.3.2-2.5.3-3.8.3v-1.7h3.8v1.4ZM940.9,455.5h-3.8v-3.8h3.8v3.8ZM940.9,449.3h-3.8v-3.8h3.8v3.8ZM940.9,443.2h-3.8v-3.8h3.8v3.8ZM940.9,437h-3.8v-3.8h3.8v3.8ZM940.9,430.9h-3.8v-3.8h3.8v3.8ZM940.9,424.7h-3.8v-3.8h3.8v3.8ZM940.9,418.6h-3.8v-3.8h3.8v3.8ZM940.9,412.5h-3.8v-3.8h3.8v3.8ZM940.9,406.3h-3.8v-3.8h3.8v3.8ZM940.9,400.2h-3.8v-3.8h3.8v3.8ZM940.9,394h-3.8v-1.7c1.3,0,2.6.1,3.8.3v1.4ZM1053.6,480.9c3-.2,5.4.4,7.1,1.9,3.2,3,4.6,9.6,4.1,19.1-.3,4.4-1,9.3-2.2,14.2,0-1,.4-20.3-2.8-20.2-3.3.1-20.5,22-20.5,22,0,0-11.6,8.9-14.6.4,7-12.7,14.5-24.2,28.9-37.4ZM1036.6,465.2c1.8-.2,5.8-.2,8.6,2.2,2.1,1.8,3.2,4.7,3.3,8.8-14.5,13.5-22.2,25-29.3,37.8,0,0-2.4,1.9-5.3,1.9s-2.4-.3-3.6-1.2c-4.1-3-1.8-8.9-1.8-8.9,4.1-7.6,9.4-16.1,14.6-23.5,5.2-7.4,10.1-13.8,13.4-17.2ZM1019.6,449.5c10.1,1.3,12.3,4.2,12,10.8-6.8,7.1-20,25.4-28.6,41.2,0,0-6,1.3-8.3-2.3-2.3-3.6-2.4-9.8.7-13.1h0c2.8-2.8,5.9-6.5,8.9-11.3,2.6-4.2,3.8-8,4.1-11.4,6.2-5.2,9.5-10,11.2-14.1ZM1007.4,435.2c3.3.3,5.7,2,6.5,4.7,1,3.3-.4,8.7-6.6,15-.7-2-1.6-3.6-2.4-4.7-.8-1.2-1.5-1.9-1.7-2.2-1.2-1.3-3.2-1.5-4.7-.5-.5.3-2.8,1.8-6.2,3.8,2.9-10.9,9.3-16.7,15-16.2ZM967.8,414.8h.8c.5,1.2.8,2.5,1.1,3.8h-1.9v-3.8ZM967.8,420.9h2.4c.2,1.3.3,2.5.3,3.8h-2.7v-3.8ZM967.8,427.1h2.7c0,1.2-.1,2.3-.3,3.5l-.3.3h-2.1v-3.8ZM961.7,403.4c.8.9,1.6,1.9,2.4,2.9h-2.4v-2.9ZM961.7,408.7h3.8v3.8h-3.8v-3.8ZM961.7,414.8h3.8v3.8h-3.8v-3.8ZM961.7,420.9h3.8v3.8h-3.8v-3.8ZM961.7,427.1h3.8v3.8h-3.8v-3.8ZM961.7,433.2h3.8v2.6l-1.1,1.2h-2.7v-3.8ZM961.7,439.4h.6l-.6.7v-.7ZM955.5,398.2c.9.6,1.8,1.3,2.7,2h-2.7v-2ZM955.5,402.5h3.8v3.8h-3.8v-3.8ZM955.5,408.7h3.8v3.8h-3.8v-3.8ZM955.5,414.8h3.8v3.8h-3.8v-3.8ZM955.5,420.9h3.8v3.8h-3.8v-3.8ZM955.5,427.1h3.8v3.8h-3.8v-3.8ZM955.5,433.2h3.8v3.8h-3.8v-3.8ZM955.5,439.4h3.8v3.3l-.5.5h-3.4v-3.8ZM955.5,445.5h1.3l-1.3,1.4v-1.4ZM949.4,396.4h3.1c-.1,0-.2-.1-.3-.2.1,0,.3.1.4.2h0c.3.1.5.3.7.4v3.4h-3.8v-3.8ZM949.4,402.5h3.8v3.8h-3.8v-3.8ZM949.4,408.7h3.8v3.8h-3.8v-3.8ZM949.4,414.8h3.8v3.8h-3.8v-3.8ZM949.4,420.9h3.8v3.8h-3.8v-3.8ZM949.4,427.1h3.8v3.8h-3.8v-3.8ZM949.4,433.2h3.8v3.8h-3.8v-3.8ZM949.4,439.4h3.8v3.8h-3.8v-3.8ZM949.4,445.5h3.8v3.8h-3.8v-3.8ZM943.2,393c1.3.3,2.5.6,3.7,1h-3.7v-1ZM945.3,458.3c-.7.2-1.4.3-2,.5h0c-.2,0-.3,0-.5.1.2,0,.3,0,.5-.1v-1h2.5l-.5.5ZM947.1,455.5h-3.8v-3.8h3.8v3.8ZM947.1,449.3h-3.8v-3.8h3.8v3.8ZM947.1,443.2h-3.8v-3.8h3.8v3.8ZM947.1,437h-3.8v-3.8h3.8v3.8ZM947.1,430.9h-3.8v-3.8h3.8v3.8ZM947.1,424.7h-3.8v-3.8h3.8v3.8ZM947.1,418.6h-3.8v-3.8h3.8v3.8ZM947.1,412.5h-3.8v-3.8h3.8v3.8ZM947.1,406.3h-3.8v-3.8h3.8v3.8ZM947.1,400.2h-3.8v-3.8h3.8v3.8ZM949.4,453.7v-2.1h1.9l-1.9,2.1ZM954.5,465.7c-.7.7-1.7.7-2.4,0-.4-.3-.6-.8-.6-1.3s.1-.8.4-1.1l23.4-27.4,11.3,11.2c.5.5.5,1.3,0,1.8l-3.5,4.1c-.4.5-1.2.6-1.8.2l-8.4-6.2-18.5,18.6ZM1047.8,577.6c2.4,2.2,3.5,6.9,3.7,8.5v1c.1,0,8.9,10.8,8.9,10.8-3,2-7.9,5.2-13.2,7.4-55.6-18.1-79.8-41.3-86.5-55.2l10.8-3,6,9.1c1.1,1.7,3.3,2.3,5.2,1.4,3.9-1.9,17.3-6.8,26.1,8.9.8,1.5,2.5,2.3,4.1,2,10.6-1.5,15,.2,18.9,7.4,1,1.9,3.4,2.7,5.4,1.7,6.6-3.2,8.5-2.1,10.7,0ZM1033,566.2c-5.2-4.9-11.6-5.6-19.3-4.7-8.7-13.9-22-14.9-31.8-11.1l-5.9-9s0,0,0,0c-16.7-28.6-19.7-41.9-19.2-47.9.6-8.1,7.3-21.8,20.1-26.7,9.9-3.8,18.6-8.9,22.9-11.5,1.1,2,2.3,5.2,1.3,9.5-2.3,8.8-10.3,16.1-20.3,20.7,0,0-.1,5.9-6.5,9.1,8.3.8,32.1,20.1,34.6,44.2,4.9-3.8,8.5-8.5,9.8-10.3l28.2,23c-4.1,5.8-8.7,11-13.9,14.8ZM1081.6,551.4l-33.8-31.5s.8-3.7,5.2-5.4l32.9,32.3s-.7,2.9-4.4,4.7Z"/>
  <g>
    <path class="st2" d="M986.8,448.9l-3.5,4.1c-.4.5-1.2.6-1.8.2l-8.4-6.2-18.5,18.6c-.7.7-1.7.7-2.4,0-.4-.3-.6-.8-.6-1.3s.1-.8.4-1.1l23.4-27.4,11.3,11.2c.5.5.5,1.3,0,1.8Z"/>
    <path class="st2" d="M1007.3,455c-.7-2-1.6-3.6-2.4-4.7-.8-1.2-1.5-1.9-1.7-2.2-1.2-1.3-3.2-1.5-4.7-.5-.5.3-2.8,1.8-6.2,3.8,2.9-10.9,9.3-16.7,15-16.2,3.3.3,5.7,2,6.5,4.7,1,3.3-.4,8.7-6.6,15Z"/>
    <path class="st2" d="M1031.5,460.3c-6.8,7.1-20,25.4-28.6,41.2,0,0-6,1.3-8.3-2.3-2.3-3.6-2.4-9.8.7-13.1h0c2.8-2.8,5.9-6.5,8.9-11.3,2.6-4.2,3.8-8,4.1-11.4,6.2-5.2,9.5-10,11.2-14.1,10.1,1.3,12.3,4.2,12,10.8Z"/>
    <path class="st2" d="M1048.5,476.1c-14.5,13.5-22.2,25-29.3,37.8,0,0-2.4,1.9-5.3,1.9s-2.4-.3-3.6-1.2c-4.1-3-1.8-8.9-1.8-8.9,4.1-7.6,9.4-16.1,14.6-23.5,5.2-7.4,10.1-13.8,13.4-17.2,1.8-.2,5.8-.2,8.6,2.2,2.1,1.8,3.2,4.7,3.3,8.8Z"/>
    <path class="st2" d="M1064.7,501.9c-.3,4.4-1,9.3-2.2,14.2,0-1,.4-20.3-2.8-20.2-3.3.1-20.5,22-20.5,22,0,0-11.6,8.9-14.6.4,7-12.7,14.5-24.2,28.9-37.4,3-.2,5.4.4,7.1,1.9,3.2,3,4.6,9.6,4.1,19.1Z"/>
    <path class="st2" d="M1086,546.8s-.7,2.9-4.4,4.7l-33.8-31.5s.8-3.7,5.2-5.4l32.9,32.3Z"/>
    <path class="st2" d="M1046.9,551.4c-4.1,5.8-8.7,11-13.9,14.8-5.2-4.9-11.6-5.6-19.3-4.7-8.7-13.9-22-14.9-31.8-11.1l-5.9-9s0,0,0,0c-16.7-28.6-19.7-41.9-19.2-47.9.6-8.1,7.3-21.8,20.1-26.7,9.9-3.8,18.6-8.9,22.9-11.5,1.1,2,2.3,5.2,1.3,9.5-2.3,8.8-10.3,16.1-20.3,20.7,0,0-.1,5.9-6.5,9.1,8.3.8,32.1,20.1,34.6,44.2,4.9-3.8,8.5-8.5,9.8-10.3l28.2,23Z"/>
    <path class="st2" d="M1060.4,597.9c-3,2-7.9,5.2-13.2,7.4-55.6-18.1-79.8-41.3-86.5-55.2l10.8-3,6,9.1c1.1,1.7,3.3,2.3,5.2,1.4,3.9-1.9,17.3-6.8,26.1,8.9.8,1.5,2.5,2.3,4.1,2,10.6-1.5,15,.2,18.9,7.4,1,1.9,3.4,2.7,5.4,1.7,6.6-3.2,8.5-2.1,10.7,0,2.4,2.2,3.5,6.9,3.7,8.5v1c.1,0,8.9,10.8,8.9,10.8Z"/>
  </g>
  <rect class="st3" x="893.4" y="418.1" width="72.8" height="4.7" transform="translate(-24.7 781.3) rotate(-45)"/>
  <rect class="st3" x="900.7" y="423.6" width="72.8" height="4.7" transform="translate(-26.4 788) rotate(-45)"/>
  <path class="st2" d="M907.9,445.6s1.6,2.1,2.9,3.4l48.2-48.2s-1.2-1.1-3.5-2.7l-47.5,47.6Z"/>
  <rect class="st1" x="387.4" y="619.9" width="735.6" height="10.9"/>
</svg>